<?xml version="1.0" encoding="UTF-8"?>
<svg version="1.1" xmlns="http://www.w3.org/2000/svg" width="484" height="515">
<path d="M0 0 C0.56890457 0.28738541 1.13780914 0.57477081 1.72395325 0.87086487 C2.71340187 1.36342522 2.71340187 1.36342522 3.72283936 1.86593628 C4.41905899 2.22278 5.11527863 2.57962372 5.83259583 2.94728088 C6.5721199 3.31850571 7.31164398 3.68973053 8.07357788 4.07220459 C10.46217335 5.27397065 12.84468944 6.48726592 15.22712708 7.70118713 C16.86976389 8.53097988 18.51266838 9.36024294 20.15583801 10.1889801 C29.04752959 14.68247003 37.92839959 19.20131319 46.704422 23.91773987 C51.22953018 26.34611872 55.80770381 28.66143468 60.40318298 30.95329285 C61.10955654 31.30601308 61.8159301 31.65873332 62.54370892 32.02214205 C64.70879031 33.10310789 66.87418129 34.18345148 69.03962708 35.26368713 C70.26943434 35.8774686 71.49923104 36.49127126 72.72901535 37.10509872 C75.73667858 38.60599888 78.74454565 40.1064887 81.75255585 41.60669327 C96.17425396 48.7994645 110.59333528 55.99747207 125.01130486 63.19771385 C133.32419543 67.34897877 141.63784777 71.49870528 149.95320129 75.64503479 C157.24948177 79.2832246 164.54436294 82.92420222 171.83756173 86.56856596 C175.68727642 88.49212002 179.53768277 90.41425947 183.38978195 92.33303452 C186.99821592 94.13048721 190.60477517 95.93164504 194.20990372 97.73571777 C195.53389758 98.39743887 196.85858113 99.05778203 198.18399048 99.71666336 C199.9884447 100.61393788 201.7902217 101.5165905 203.59184265 102.41954041 C205.10651784 103.17549531 205.10651784 103.17549531 206.65179253 103.94672203 C209.03962708 105.26368713 209.03962708 105.26368713 211.03962708 107.26368713 C211.28802407 109.24333203 211.28802407 109.24333203 211.28572273 111.72647285 C211.28970483 112.67097176 211.29368693 113.61547066 211.29778969 114.58859074 C211.29196401 115.6333211 211.28613833 116.67805146 211.28013611 117.75444031 C211.28269938 119.41084229 211.28269938 119.41084229 211.28531444 121.10070693 C211.28862633 124.82583397 211.27757769 128.55078354 211.26667786 132.27589417 C211.26611411 134.93625802 211.26634138 137.59661077 211.26756287 140.25697327 C211.26861312 145.99734991 211.26232187 151.73768119 211.25108719 157.47804642 C211.23485416 165.7777113 211.22962644 174.07735418 211.22711121 182.37703322 C211.22273064 195.84170504 211.20941176 209.30635267 211.19050598 222.77101135 C211.17215652 235.85304137 211.15799545 248.93506482 211.14949036 262.0171051 C211.14896491 262.82306846 211.14843946 263.62903182 211.14789809 264.45941831 C211.14528808 268.50257624 211.14276065 272.54573422 211.14027429 276.58889222 C211.11953054 310.14717474 211.0842952 343.70542797 211.03962708 377.26368713 C200.87132042 382.64123086 190.70324327 388.00926101 180.40608215 393.13722229 C179.39512985 393.64277145 178.38417755 394.14832062 177.34259033 394.66918945 C174.08239344 396.29894659 170.82079873 397.92588362 167.55915833 399.55274963 C165.24800919 400.70738808 162.93695042 401.86220743 160.62597656 403.01719666 C155.20651992 405.72522666 149.78618035 408.43148121 144.36537999 411.1368202 C138.24639322 414.19072167 132.12854117 417.24689295 126.01078951 420.30326772 C117.46078254 424.57474482 108.91035443 428.8453771 100.35907269 433.11430168 C96.46503814 435.05827528 92.57115638 437.00255478 88.67728043 438.94684601 C86.17037488 440.19841165 83.66322562 441.44948796 81.15605164 442.70051575 C79.71382947 443.42060425 78.2716187 444.14071559 76.829422 444.8608551 C76.19793904 445.17574701 75.56645609 445.49063892 74.91583729 445.81507301 C70.41857169 448.06168917 65.9651789 450.3795378 61.53962708 452.76368713 C54.08250166 456.74363784 46.54995857 460.55162159 38.97517395 464.30177307 C36.51102299 465.52638896 34.05520125 466.76702061 31.60115051 468.01173401 C30.34135806 468.64327145 29.07621411 469.26423424 27.80622864 469.87501526 C23.30767434 472.05028186 19.00513051 474.44268416 14.69587708 476.97462463 C12.37361336 478.2596595 10.05069309 479.54350855 7.72712708 480.82618713 C6.12840759 481.82235046 6.12840759 481.82235046 4.49739075 482.83863831 C0.46921168 484.99140681 -3.35319042 486.96670674 -7.99534285 485.71496308 C-10.27354184 484.74277955 -12.44815137 483.65547931 -14.63952637 482.50076294 C-15.46506714 482.08748924 -16.29060792 481.67421554 -17.14116508 481.24841839 C-18.88441348 480.37375149 -20.62322737 479.49019648 -22.35774255 478.59833646 C-24.84353458 477.32360275 -27.34151127 476.07862368 -29.84807396 474.84531975 C-35.00820768 472.30493511 -40.15091839 469.73047889 -45.2931366 467.15406799 C-47.27780122 466.16158205 -49.26255451 465.1692734 -51.24738789 464.17712498 C-56.50140123 461.55022992 -61.75421782 458.92095072 -67.00676727 456.29113007 C-71.95890022 453.81218902 -76.91213877 451.3354613 -81.86528015 448.85853577 C-96.29390771 441.64161161 -110.72078649 434.42119159 -125.14787292 427.20118713 C-157.42599792 411.05181213 -189.70412292 394.90243713 -222.96037292 378.26368713 C-222.96037292 288.50368713 -222.96037292 198.74368713 -222.96037292 106.26368713 C-201.12348485 94.77058815 -201.12348485 94.77058815 -194.2749939 91.33395386 C-193.46261696 90.92451591 -192.65024002 90.51507797 -191.81324559 90.09323281 C-189.17849537 88.76593088 -186.54249248 87.44113972 -183.90641785 86.11647034 C-181.98228598 85.14797614 -180.05821034 84.17937022 -178.13418579 83.21066284 C-160.77965209 74.47611513 -143.41367087 65.76425628 -126.04506969 57.05772114 C-113.22918482 50.63308411 -100.41873054 44.19786416 -87.61504287 37.74895221 C-78.57646357 33.19756135 -69.53183439 28.65834665 -60.48262674 24.12812489 C-55.08847468 21.42726721 -49.69719027 18.72101435 -44.31241417 16.0015049 C-39.26386687 13.4520899 -34.2080326 10.91777099 -29.1461277 8.39498711 C-27.28976038 7.46650083 -25.43613347 6.53251245 -23.58547974 5.59268951 C-21.06243418 4.31243459 -18.53033888 3.05221878 -15.9949646 1.79660034 C-15.26277606 1.41919576 -14.53058751 1.04179119 -13.77621144 0.65295011 C-8.58295103 -1.88077662 -5.33566077 -2.00406546 0 0 Z " fill="#F8F8F8" transform="translate(252.9603729248047,14.736312866210938)"/>
<path d="M0 0 C0.56890457 0.28738541 1.13780914 0.57477081 1.72395325 0.87086487 C2.71340187 1.36342522 2.71340187 1.36342522 3.72283936 1.86593628 C4.41905899 2.22278 5.11527863 2.57962372 5.83259583 2.94728088 C6.5721199 3.31850571 7.31164398 3.68973053 8.07357788 4.07220459 C10.46217335 5.27397065 12.84468944 6.48726592 15.22712708 7.70118713 C16.86976389 8.53097988 18.51266838 9.36024294 20.15583801 10.1889801 C29.04752959 14.68247003 37.92839959 19.20131319 46.704422 23.91773987 C51.22953018 26.34611872 55.80770381 28.66143468 60.40318298 30.95329285 C61.10955654 31.30601308 61.8159301 31.65873332 62.54370892 32.02214205 C64.70879031 33.10310789 66.87418129 34.18345148 69.03962708 35.26368713 C70.26943434 35.8774686 71.49923104 36.49127126 72.72901535 37.10509872 C75.73667858 38.60599888 78.74454565 40.1064887 81.75255585 41.60669327 C96.17425396 48.7994645 110.59333528 55.99747207 125.01130486 63.19771385 C133.32419543 67.34897877 141.63784777 71.49870528 149.95320129 75.64503479 C157.24948177 79.2832246 164.54436294 82.92420222 171.83756173 86.56856596 C175.68727642 88.49212002 179.53768277 90.41425947 183.38978195 92.33303452 C186.99821592 94.13048721 190.60477517 95.93164504 194.20990372 97.73571777 C195.53389758 98.39743887 196.85858113 99.05778203 198.18399048 99.71666336 C199.9884447 100.61393788 201.7902217 101.5165905 203.59184265 102.41954041 C205.10651784 103.17549531 205.10651784 103.17549531 206.65179253 103.94672203 C209.03962708 105.26368713 209.03962708 105.26368713 211.03962708 107.26368713 C211.28802407 109.24333203 211.28802407 109.24333203 211.28572273 111.72647285 C211.28970483 112.67097176 211.29368693 113.61547066 211.29778969 114.58859074 C211.29196401 115.6333211 211.28613833 116.67805146 211.28013611 117.75444031 C211.28269938 119.41084229 211.28269938 119.41084229 211.28531444 121.10070693 C211.28862633 124.82583397 211.27757769 128.55078354 211.26667786 132.27589417 C211.26611411 134.93625802 211.26634138 137.59661077 211.26756287 140.25697327 C211.26861312 145.99734991 211.26232187 151.73768119 211.25108719 157.47804642 C211.23485416 165.7777113 211.22962644 174.07735418 211.22711121 182.37703322 C211.22273064 195.84170504 211.20941176 209.30635267 211.19050598 222.77101135 C211.17215652 235.85304137 211.15799545 248.93506482 211.14949036 262.0171051 C211.14896491 262.82306846 211.14843946 263.62903182 211.14789809 264.45941831 C211.14528808 268.50257624 211.14276065 272.54573422 211.14027429 276.58889222 C211.11953054 310.14717474 211.0842952 343.70542797 211.03962708 377.26368713 C200.87132042 382.64123086 190.70324327 388.00926101 180.40608215 393.13722229 C179.39512985 393.64277145 178.38417755 394.14832062 177.34259033 394.66918945 C174.08239344 396.29894659 170.82079873 397.92588362 167.55915833 399.55274963 C165.24800919 400.70738808 162.93695042 401.86220743 160.62597656 403.01719666 C155.20651992 405.72522666 149.78618035 408.43148121 144.36537999 411.1368202 C138.24639322 414.19072167 132.12854117 417.24689295 126.01078951 420.30326772 C117.46078254 424.57474482 108.91035443 428.8453771 100.35907269 433.11430168 C96.46503814 435.05827528 92.57115638 437.00255478 88.67728043 438.94684601 C86.17037488 440.19841165 83.66322562 441.44948796 81.15605164 442.70051575 C79.71382947 443.42060425 78.2716187 444.14071559 76.829422 444.8608551 C76.19793904 445.17574701 75.56645609 445.49063892 74.91583729 445.81507301 C70.41857169 448.06168917 65.9651789 450.3795378 61.53962708 452.76368713 C54.08250166 456.74363784 46.54995857 460.55162159 38.97517395 464.30177307 C36.51102299 465.52638896 34.05520125 466.76702061 31.60115051 468.01173401 C30.34135806 468.64327145 29.07621411 469.26423424 27.80622864 469.87501526 C23.30767434 472.05028186 19.00513051 474.44268416 14.69587708 476.97462463 C12.37361336 478.2596595 10.05069309 479.54350855 7.72712708 480.82618713 C6.12840759 481.82235046 6.12840759 481.82235046 4.49739075 482.83863831 C0.46921168 484.99140681 -3.35319042 486.96670674 -7.99534285 485.71496308 C-10.27354184 484.74277955 -12.44815137 483.65547931 -14.63952637 482.50076294 C-15.46506714 482.08748924 -16.29060792 481.67421554 -17.14116508 481.24841839 C-18.88441348 480.37375149 -20.62322737 479.49019648 -22.35774255 478.59833646 C-24.84353458 477.32360275 -27.34151127 476.07862368 -29.84807396 474.84531975 C-35.00820768 472.30493511 -40.15091839 469.73047889 -45.2931366 467.15406799 C-47.27780122 466.16158205 -49.26255451 465.1692734 -51.24738789 464.17712498 C-56.50140123 461.55022992 -61.75421782 458.92095072 -67.00676727 456.29113007 C-71.95890022 453.81218902 -76.91213877 451.3354613 -81.86528015 448.85853577 C-96.29390771 441.64161161 -110.72078649 434.42119159 -125.14787292 427.20118713 C-157.42599792 411.05181213 -189.70412292 394.90243713 -222.96037292 378.26368713 C-222.96037292 288.50368713 -222.96037292 198.74368713 -222.96037292 106.26368713 C-201.12348485 94.77058815 -201.12348485 94.77058815 -194.2749939 91.33395386 C-193.46261696 90.92451591 -192.65024002 90.51507797 -191.81324559 90.09323281 C-189.17849537 88.76593088 -186.54249248 87.44113972 -183.90641785 86.11647034 C-181.98228598 85.14797614 -180.05821034 84.17937022 -178.13418579 83.21066284 C-160.77965209 74.47611513 -143.41367087 65.76425628 -126.04506969 57.05772114 C-113.22918482 50.63308411 -100.41873054 44.19786416 -87.61504287 37.74895221 C-78.57646357 33.19756135 -69.53183439 28.65834665 -60.48262674 24.12812489 C-55.08847468 21.42726721 -49.69719027 18.72101435 -44.31241417 16.0015049 C-39.26386687 13.4520899 -34.2080326 10.91777099 -29.1461277 8.39498711 C-27.28976038 7.46650083 -25.43613347 6.53251245 -23.58547974 5.59268951 C-21.06243418 4.31243459 -18.53033888 3.05221878 -15.9949646 1.79660034 C-15.26277606 1.41919576 -14.53058751 1.04179119 -13.77621144 0.65295011 C-8.58295103 -1.88077662 -5.33566077 -2.00406546 0 0 Z M-12.54631042 12.53712463 C-13.92665466 13.27225281 -13.92665466 13.27225281 -15.33488464 14.02223206 C-16.32504578 14.55566223 -17.31520691 15.08909241 -18.33537292 15.63868713 C-26.0909133 19.75786543 -33.881115 23.72984477 -41.83537292 27.45118713 C-48.95214225 30.78885304 -55.93790372 34.29570353 -62.8646698 38.01051331 C-73.18124919 43.54161778 -83.67326087 48.67461298 -94.27287292 53.63868713 C-101.64004202 57.09286628 -108.85667402 60.77649051 -116.03898621 64.59864807 C-122.9703803 68.28601773 -129.9730673 71.81257075 -137.00871277 75.2959137 C-139.57676352 76.56933791 -142.14045858 77.85138336 -144.70378113 79.1342926 C-146.7214554 80.14411206 -148.73955613 81.15307245 -150.75773621 82.16188049 C-153.3529221 83.45931428 -155.94733663 84.7582593 -158.54069519 86.05934143 C-165.10998981 89.35277264 -171.68787585 92.62705034 -178.28614807 95.86210632 C-181.6428099 97.509165 -184.99550597 99.16420525 -188.3478241 100.82008362 C-190.07302029 101.66988107 -191.79996354 102.51613945 -193.52848816 103.35914612 C-196.06124878 104.59540545 -198.58746732 105.84420286 -201.11271667 107.09571838 C-201.88856613 107.4707399 -202.66441559 107.84576141 -203.46377563 108.23214722 C-205.33546436 109.16749314 -207.15414493 110.20745274 -208.96037292 111.26368713 C-209.29037292 112.25368713 -209.62037292 113.24368713 -209.96037292 114.26368713 C-196.53162522 121.47837522 -196.53162522 121.47837522 -182.75724792 127.99415588 C-177.03812488 130.59012654 -171.45772038 133.48051866 -165.85148621 136.31007385 C-163.22451007 137.63475353 -160.59255459 138.9493869 -157.96037292 140.26368713 C-157.00517761 140.74192932 -156.0499823 141.22017151 -155.06584167 141.71290588 C-152.79956097 142.8446209 -150.53136998 143.97195865 -148.26115417 145.09571838 C-141.41708472 148.49099524 -134.62734214 151.95878711 -127.89787292 155.57618713 C-120.20781205 159.70122388 -112.35841296 163.44882439 -104.46989441 167.17701721 C-98.72140605 169.90625147 -93.05744901 172.7367873 -87.46037292 175.76368713 C-79.89855816 179.84973652 -72.17847214 183.55926413 -64.41325378 187.24147034 C-56.83981754 190.83347181 -49.32911931 194.53309616 -41.84757996 198.31202698 C-37.9008559 200.30223789 -33.94476709 202.27382521 -29.98942566 204.24684143 C-26.47605022 206.00070524 -22.96859712 207.7653224 -19.46818542 209.54493713 C-18.73470886 209.91618713 -18.0012323 210.28743713 -17.24552917 210.66993713 C-15.83241977 211.38543557 -14.42088921 212.10406297 -13.01115417 212.82618713 C-9.65443382 214.65075081 -9.65443382 214.65075081 -5.96037292 215.26368713 C-5.96037292 300.40368713 -5.96037292 385.54368713 -5.96037292 473.26368713 C-0.58416288 470.98782532 -0.58416288 470.98782532 4.66072083 468.50196838 C5.60141418 468.02920471 5.60141418 468.02920471 6.56111145 467.54689026 C7.19339661 467.22655823 7.82568176 466.9062262 8.47712708 466.57618713 C9.72576179 465.94715541 10.97446379 465.31825724 12.22322083 464.68946838 C12.90832639 464.34388665 13.59343195 463.99830492 14.29929829 463.64225101 C17.62638583 461.96850926 20.95765206 460.30317487 24.28918457 458.63830566 C29.91665211 455.82531633 35.54357969 453.01125338 41.16958618 450.19534302 C42.20548891 449.67686131 42.20548891 449.67686131 43.26231897 449.14790523 C44.70691929 448.42485104 46.15151536 447.70178838 47.59610748 446.9787178 C64.51207254 438.51174048 81.4293098 430.04730708 98.34712696 421.58403111 C108.10657686 416.70171742 117.86564283 411.81863907 127.62385559 406.93385315 C136.17738428 402.6521134 144.73160963 398.37176928 153.28668231 394.09311527 C157.80475466 391.83342725 162.32247188 389.57303562 166.83934975 387.31096077 C171.07309344 385.19070636 175.30776223 383.07231157 179.54316139 380.95536613 C181.09838419 380.17761681 182.65326254 379.39917828 184.20777512 378.62001038 C186.3244193 377.559212 188.44227269 376.50086801 190.56045532 375.44314575 C191.1789184 375.13245779 191.79738148 374.82176983 192.43458587 374.50166708 C194.95160397 373.24757437 197.36617997 372.15483617 200.03962708 371.26368713 C200.03962708 285.79368713 200.03962708 200.32368713 200.03962708 112.26368713 C196.73962708 110.94368713 193.43962708 109.62368713 190.03962708 108.26368713 C187.66323705 107.05647086 185.30701963 105.8083691 182.97712708 104.51368713 C177.66310368 101.60634766 172.29132196 98.92208511 166.78962708 96.38868713 C160.72678822 93.58955113 154.80218042 90.60180383 148.91462708 87.45118713 C141.87800777 83.6889336 134.75493957 80.17020193 127.53962708 76.76368713 C119.50630596 72.96844887 111.59779507 69.00453995 103.75715637 64.82667542 C96.89515627 61.17054221 89.95888309 57.6811122 82.99128723 54.23146057 C79.66965828 52.5843581 76.35505878 50.92321822 73.03962708 49.26368713 C71.70632628 48.59695539 70.37299297 47.93028867 69.03962708 47.26368713 C66.37296041 45.9303538 63.70629374 44.59702047 61.03962708 43.26368713 C60.10519524 42.79648254 60.10519524 42.79648254 59.15188599 42.31983948 C57.81933154 41.65354781 56.48679886 40.98721262 55.15429688 40.32081604 C51.92174159 38.70426736 48.6888856 37.08833081 45.45491028 35.47462463 C38.88393084 32.19440097 32.31884473 28.90310065 25.76542664 25.58790588 C22.43265196 23.90274884 19.09747444 22.22237937 15.76203918 20.54249573 C14.04778377 19.67769077 12.33459433 18.81077006 10.62239075 17.94190979 C8.1119017 16.66857953 5.59768807 15.40289539 3.08259583 14.13868713 C2.31706894 13.74818176 1.55154205 13.35767639 0.76281738 12.95533752 C-4.76534857 10.19037106 -7.13028192 9.61634932 -12.54631042 12.53712463 Z " fill="#CBCBCB" transform="translate(252.9603729248047,14.736312866210938)"/>
<path d="M0 0 C6.7022554 4.9894568 10.39592778 11.18778334 13 19 C13.10054839 21.20940341 13.13939683 23.42176161 13.14717102 25.63343811 C13.15084771 26.31089897 13.1545244 26.98835983 13.1583125 27.68634981 C13.1693452 29.96156182 13.17319252 32.23672814 13.17700195 34.51196289 C13.18326709 36.14148097 13.18991394 37.77099761 13.19691467 39.4005127 C13.21795755 44.75788376 13.22831963 50.11525511 13.23828125 55.47265625 C13.2423292 57.3183182 13.24644614 59.16398 13.25063133 61.00964165 C13.26968621 69.68397308 13.28391468 78.35829599 13.2922433 87.03264433 C13.30200685 97.03585392 13.32830204 107.03884171 13.36874419 117.04197317 C13.39894687 124.77885817 13.41371625 132.51567976 13.41702431 140.25262254 C13.41937075 144.87074049 13.42827757 149.48862156 13.45348549 154.1066761 C13.47684291 158.45615313 13.48096879 162.80523866 13.47072411 167.15476227 C13.47023044 168.74539686 13.47650077 170.33605122 13.49028015 171.92662621 C13.59096851 184.24527213 12.07779963 194.20369371 3.2890625 203.37890625 C-3.36061265 209.11430536 -11.92828686 212.60606736 -19.75732422 216.41601562 C-23.01032214 218.00504217 -26.24323569 219.62926851 -29.47265625 221.265625 C-40.35763276 226.77224826 -51.30684488 232.12472978 -62.33203125 237.34399414 C-73.18311764 242.51235487 -83.90674993 247.93616163 -94.64730835 253.32928467 C-105.58393947 258.81935804 -116.54333422 264.23275529 -127.61401367 269.44848633 C-134.17076878 272.55392123 -140.59325628 275.87424854 -146.95483398 279.36206055 C-151.80071351 282 -151.80071351 282 -154 282 C-154.7599954 253.79297606 -155.14502168 225.61023709 -155.10139394 197.39335918 C-155.0949609 192.49419501 -155.0945414 187.59502956 -155.09336853 182.69586182 C-155.09031202 173.49979448 -155.08217892 164.30373964 -155.07201904 155.1076777 C-155.06067675 144.60383594 -155.05530277 134.09999346 -155.05032361 123.59614706 C-155.03998853 102.06409118 -155.02250454 80.53204639 -155 59 C-151.95410539 57.39069234 -148.90719644 55.78331438 -145.86010742 54.17626953 C-145.00217339 53.72294754 -144.14423935 53.26962555 -143.26030731 52.80256653 C-137.3411764 49.68240863 -131.37882755 46.6992285 -125.3125 43.875 C-115.80367964 39.3878398 -106.39339767 34.72214978 -97 30 C-86.90161074 24.92530476 -76.77499219 19.9325047 -66.55688477 15.10180664 C-61.19713026 12.55807224 -55.87381689 9.95135482 -50.57421875 7.28515625 C-49.93950653 6.96603271 -49.30479431 6.64690918 -48.65084839 6.31811523 C-45.53444208 4.74958104 -42.42113266 3.17522634 -39.31152344 1.59326172 C-38.18649414 1.02494629 -37.06146484 0.45663086 -35.90234375 -0.12890625 C-34.90710693 -0.63494385 -33.91187012 -1.14098145 -32.88647461 -1.66235352 C-21.35697589 -7.00533952 -11.17334941 -5.96200686 0 0 Z " fill="#545454" transform="translate(426,177)"/>
<path d="M0 0 C0.56890457 0.28738541 1.13780914 0.57477081 1.72395325 0.87086487 C2.71340187 1.36342522 2.71340187 1.36342522 3.72283936 1.86593628 C4.41905899 2.22278 5.11527863 2.57962372 5.83259583 2.94728088 C6.5721199 3.31850571 7.31164398 3.68973053 8.07357788 4.07220459 C10.46217335 5.27397065 12.84468944 6.48726592 15.22712708 7.70118713 C16.86976389 8.53097988 18.51266838 9.36024294 20.15583801 10.1889801 C29.04752959 14.68247003 37.92839959 19.20131319 46.704422 23.91773987 C51.22953018 26.34611872 55.80770381 28.66143468 60.40318298 30.95329285 C61.10955654 31.30601308 61.8159301 31.65873332 62.54370892 32.02214205 C64.70879031 33.10310789 66.87418129 34.18345148 69.03962708 35.26368713 C70.26943434 35.8774686 71.49923104 36.49127126 72.72901535 37.10509872 C75.73667858 38.60599888 78.74454565 40.1064887 81.75255585 41.60669327 C96.17425396 48.7994645 110.59333528 55.99747207 125.01130486 63.19771385 C133.32419543 67.34897877 141.63784777 71.49870528 149.95320129 75.64503479 C157.24948177 79.2832246 164.54436294 82.92420222 171.83756173 86.56856596 C175.68727642 88.49212002 179.53768277 90.41425947 183.38978195 92.33303452 C186.99821592 94.13048721 190.60477517 95.93164504 194.20990372 97.73571777 C195.53389758 98.39743887 196.85858113 99.05778203 198.18399048 99.71666336 C199.9884447 100.61393788 201.7902217 101.5165905 203.59184265 102.41954041 C205.10651784 103.17549531 205.10651784 103.17549531 206.65179253 103.94672203 C209.03962708 105.26368713 209.03962708 105.26368713 211.03962708 107.26368713 C211.28802407 109.24333203 211.28802407 109.24333203 211.28572273 111.72647285 C211.28970483 112.67097176 211.29368693 113.61547066 211.29778969 114.58859074 C211.29196401 115.6333211 211.28613833 116.67805146 211.28013611 117.75444031 C211.28269938 119.41084229 211.28269938 119.41084229 211.28531444 121.10070693 C211.28862633 124.82583397 211.27757769 128.55078354 211.26667786 132.27589417 C211.26611411 134.93625802 211.26634138 137.59661077 211.26756287 140.25697327 C211.26861312 145.99734991 211.26232187 151.73768119 211.25108719 157.47804642 C211.23485416 165.7777113 211.22962644 174.07735418 211.22711121 182.37703322 C211.22273064 195.84170504 211.20941176 209.30635267 211.19050598 222.77101135 C211.17215652 235.85304137 211.15799545 248.93506482 211.14949036 262.0171051 C211.14896491 262.82306846 211.14843946 263.62903182 211.14789809 264.45941831 C211.14528808 268.50257624 211.14276065 272.54573422 211.14027429 276.58889222 C211.11953054 310.14717474 211.0842952 343.70542797 211.03962708 377.26368713 C200.87132042 382.64123086 190.70324327 388.00926101 180.40608215 393.13722229 C179.39512985 393.64277145 178.38417755 394.14832062 177.34259033 394.66918945 C174.08239344 396.29894659 170.82079873 397.92588362 167.55915833 399.55274963 C165.24800919 400.70738808 162.93695042 401.86220743 160.62597656 403.01719666 C155.20651992 405.72522666 149.78618035 408.43148121 144.36537999 411.1368202 C138.24639322 414.19072167 132.12854117 417.24689295 126.01078951 420.30326772 C117.46078254 424.57474482 108.91035443 428.8453771 100.35907269 433.11430168 C96.46503814 435.05827528 92.57115638 437.00255478 88.67728043 438.94684601 C86.17037488 440.19841165 83.66322562 441.44948796 81.15605164 442.70051575 C79.71382947 443.42060425 78.2716187 444.14071559 76.829422 444.8608551 C76.19793904 445.17574701 75.56645609 445.49063892 74.91583729 445.81507301 C70.41857169 448.06168917 65.9651789 450.3795378 61.53962708 452.76368713 C54.08250166 456.74363784 46.54995857 460.55162159 38.97517395 464.30177307 C36.51102299 465.52638896 34.05520125 466.76702061 31.60115051 468.01173401 C30.34135806 468.64327145 29.07621411 469.26423424 27.80622864 469.87501526 C23.30767434 472.05028186 19.00513051 474.44268416 14.69587708 476.97462463 C12.37361336 478.2596595 10.05069309 479.54350855 7.72712708 480.82618713 C6.12840759 481.82235046 6.12840759 481.82235046 4.49739075 482.83863831 C0.46921168 484.99140681 -3.35319042 486.96670674 -7.99534285 485.71496308 C-10.27354184 484.74277955 -12.44815137 483.65547931 -14.63952637 482.50076294 C-15.46506714 482.08748924 -16.29060792 481.67421554 -17.14116508 481.24841839 C-18.88441348 480.37375149 -20.62322737 479.49019648 -22.35774255 478.59833646 C-24.84353458 477.32360275 -27.34151127 476.07862368 -29.84807396 474.84531975 C-35.00820768 472.30493511 -40.15091839 469.73047889 -45.2931366 467.15406799 C-47.27780122 466.16158205 -49.26255451 465.1692734 -51.24738789 464.17712498 C-56.50140123 461.55022992 -61.75421782 458.92095072 -67.00676727 456.29113007 C-71.95890022 453.81218902 -76.91213877 451.3354613 -81.86528015 448.85853577 C-96.29390771 441.64161161 -110.72078649 434.42119159 -125.14787292 427.20118713 C-157.42599792 411.05181213 -189.70412292 394.90243713 -222.96037292 378.26368713 C-222.96037292 288.50368713 -222.96037292 198.74368713 -222.96037292 106.26368713 C-201.12348485 94.77058815 -201.12348485 94.77058815 -194.2749939 91.33395386 C-193.46261696 90.92451591 -192.65024002 90.51507797 -191.81324559 90.09323281 C-189.17849537 88.76593088 -186.54249248 87.44113972 -183.90641785 86.11647034 C-181.98228598 85.14797614 -180.05821034 84.17937022 -178.13418579 83.21066284 C-160.77965209 74.47611513 -143.41367087 65.76425628 -126.04506969 57.05772114 C-113.22918482 50.63308411 -100.41873054 44.19786416 -87.61504287 37.74895221 C-78.57646357 33.19756135 -69.53183439 28.65834665 -60.48262674 24.12812489 C-55.08847468 21.42726721 -49.69719027 18.72101435 -44.31241417 16.0015049 C-39.26386687 13.4520899 -34.2080326 10.91777099 -29.1461277 8.39498711 C-27.28976038 7.46650083 -25.43613347 6.53251245 -23.58547974 5.59268951 C-21.06243418 4.31243459 -18.53033888 3.05221878 -15.9949646 1.79660034 C-15.26277606 1.41919576 -14.53058751 1.04179119 -13.77621144 0.65295011 C-8.58295103 -1.88077662 -5.33566077 -2.00406546 0 0 Z M-12.54631042 12.53712463 C-13.92665466 13.27225281 -13.92665466 13.27225281 -15.33488464 14.02223206 C-16.32504578 14.55566223 -17.31520691 15.08909241 -18.33537292 15.63868713 C-26.0909133 19.75786543 -33.881115 23.72984477 -41.83537292 27.45118713 C-48.95214225 30.78885304 -55.93790372 34.29570353 -62.8646698 38.01051331 C-73.18124919 43.54161778 -83.67326087 48.67461298 -94.27287292 53.63868713 C-101.64004202 57.09286628 -108.85667402 60.77649051 -116.03898621 64.59864807 C-122.9703803 68.28601773 -129.9730673 71.81257075 -137.00871277 75.2959137 C-139.57676352 76.56933791 -142.14045858 77.85138336 -144.70378113 79.1342926 C-146.72282201 80.14479603 -148.74218083 81.15465966 -150.76164246 82.1643219 C-153.34312171 83.45497773 -155.92441314 84.74600599 -158.50553894 86.03736877 C-165.19887594 89.38584317 -171.89425771 92.73015116 -178.59327698 96.06724548 C-182.13018569 97.82943444 -185.6662925 99.59322912 -189.20231628 101.35719299 C-191.02586723 102.26640846 -192.84977052 103.17491754 -194.67399597 104.08277893 C-197.34199637 105.41076321 -200.00872979 106.74126079 -202.67521667 108.07228088 C-203.49481369 108.47949875 -204.31441071 108.88671661 -205.15884399 109.30627441 C-208.79736593 110.93275965 -208.79736593 110.93275965 -211.96037292 113.26368713 C-212.05683725 114.64504043 -212.08409197 116.03129934 -212.08342075 117.41601658 C-212.0854118 118.31672369 -212.08740285 119.21743079 -212.08945423 120.14543205 C-212.08654139 121.14638387 -212.08362855 122.14733569 -212.08062744 123.17861938 C-212.08148187 124.23303032 -212.08233629 125.28744125 -212.08321661 126.37380403 C-212.08487455 129.93615495 -212.07934491 133.49845963 -212.07389832 137.06080627 C-212.07361649 139.60279336 -212.07377409 142.14478054 -212.07434082 144.68676758 C-212.07456915 150.17450622 -212.07171764 155.66222975 -212.06610298 161.14996529 C-212.05799031 169.08439516 -212.055373 177.01881927 -212.05411499 184.95325284 C-212.0519241 197.82504474 -212.04526303 210.69683031 -212.03581238 223.56861877 C-212.02663921 236.07545439 -212.01955791 248.58228829 -212.01530457 261.08912659 C-212.01504184 261.85950872 -212.01477912 262.62989086 -212.01450843 263.42361791 C-212.01320344 267.28823765 -212.01193972 271.1528574 -212.01069653 275.01747715 C-212.00032278 307.09955174 -211.98270347 339.18161856 -211.96037292 371.26368713 C-210.60644943 371.94064888 -210.60644943 371.94064888 -209.22517395 372.63128662 C-155.23251851 399.62761434 -101.23986308 426.62394206 -47.24720764 453.62026978 C-46.0924056 454.19764059 -46.0924056 454.19764059 -44.91427422 454.78667545 C-43.41970841 455.5339985 -41.92520612 456.28144861 -40.43077278 457.02903652 C-36.78110941 458.85458586 -33.13026746 460.67770875 -29.47721863 462.49647522 C-28.75373985 462.85708668 -28.03026108 463.21769814 -27.2848587 463.58923721 C-25.92989822 464.26452016 -24.57454778 464.93902152 -23.21871185 465.61254501 C-18.80489142 467.81362198 -14.46520289 470.12287165 -10.17131042 472.54884338 C-5.58066552 474.03309783 -1.88630076 472.34295961 2.21931458 470.25978088 C3.78904284 469.41545735 5.35405866 468.56232316 6.91462708 467.70118713 C12.67207955 464.56845564 18.46406555 461.52691904 24.33239746 458.60656738 C25.76618371 457.89136678 27.19994649 457.17611912 28.63368797 456.46082878 C29.36552418 456.09598845 30.09736038 455.73114812 30.85137343 455.35525203 C34.29249815 453.63871841 37.73102266 451.91699988 41.16958618 450.19534302 C42.58127577 449.48874886 43.99297334 448.78217065 45.40467834 448.0756073 C46.12784996 447.71363377 46.85102158 447.35166023 47.59610748 446.9787178 C64.51207254 438.51174048 81.4293098 430.04730708 98.34712696 421.58403111 C108.10657686 416.70171742 117.86564283 411.81863907 127.62385559 406.93385315 C136.17738428 402.6521134 144.73160963 398.37176928 153.28668231 394.09311527 C157.80475466 391.83342725 162.32247188 389.57303562 166.83934975 387.31096077 C171.07309344 385.19070636 175.30776223 383.07231157 179.54316139 380.95536613 C181.09838419 380.17761681 182.65326254 379.39917828 184.20777512 378.62001038 C186.3244193 377.559212 188.44227269 376.50086801 190.56045532 375.44314575 C191.1789184 375.13245779 191.79738148 374.82176983 192.43458587 374.50166708 C194.95160397 373.24757437 197.36617997 372.15483617 200.03962708 371.26368713 C200.03962708 285.79368713 200.03962708 200.32368713 200.03962708 112.26368713 C196.73962708 110.94368713 193.43962708 109.62368713 190.03962708 108.26368713 C187.66323705 107.05647086 185.30701963 105.8083691 182.97712708 104.51368713 C177.66310368 101.60634766 172.29132196 98.92208511 166.78962708 96.38868713 C160.72678822 93.58955113 154.80218042 90.60180383 148.91462708 87.45118713 C141.87800777 83.6889336 134.75493957 80.17020193 127.53962708 76.76368713 C119.50630596 72.96844887 111.59779507 69.00453995 103.75715637 64.82667542 C96.89515627 61.17054221 89.95888309 57.6811122 82.99128723 54.23146057 C79.66965828 52.5843581 76.35505878 50.92321822 73.03962708 49.26368713 C71.70632628 48.59695539 70.37299297 47.93028867 69.03962708 47.26368713 C66.37296041 45.9303538 63.70629374 44.59702047 61.03962708 43.26368713 C60.10519524 42.79648254 60.10519524 42.79648254 59.15188599 42.31983948 C57.81933154 41.65354781 56.48679886 40.98721262 55.15429688 40.32081604 C51.92174159 38.70426736 48.6888856 37.08833081 45.45491028 35.47462463 C38.88393084 32.19440097 32.31884473 28.90310065 25.76542664 25.58790588 C22.43265196 23.90274884 19.09747444 22.22237937 15.76203918 20.54249573 C14.04778377 19.67769077 12.33459433 18.81077006 10.62239075 17.94190979 C8.1119017 16.66857953 5.59768807 15.40289539 3.08259583 14.13868713 C2.31706894 13.74818176 1.55154205 13.35767639 0.76281738 12.95533752 C-4.76534857 10.19037106 -7.13028192 9.61634932 -12.54631042 12.53712463 Z " fill="#565656" transform="translate(252.9603729248047,14.736312866210938)"/>
<path d="M0 0 C0.99 0 1.98 0 3 0 C3 85.47 3 170.94 3 259 C-8.385 264.445 -8.385 264.445 -20 270 C-25.25605468 272.58730132 -30.5057732 275.18376212 -35.74365234 277.80712891 C-37.15778615 278.51351419 -38.57200424 279.21973075 -39.98629761 279.92579651 C-43.74307485 281.80195378 -47.49862905 283.68054586 -51.25387144 285.55977297 C-55.2303764 287.54931539 -59.20787879 289.53686214 -63.18521118 291.52474976 C-69.85059147 294.85653769 -76.51514021 298.18998425 -83.17919922 301.52441406 C-90.83470406 305.3548924 -98.49165212 309.18247364 -106.14934576 313.00857413 C-112.78600722 316.32462196 -119.42187414 319.64225572 -126.05710185 322.96117151 C-129.9933195 324.93005144 -133.9297893 326.89842213 -137.86698532 328.865345 C-158.97911617 339.38298169 -158.97911617 339.38298169 -179.86941528 350.3318634 C-184.34736275 352.71794419 -188.90182614 354.919548 -193.5 357.0625 C-194.32113281 357.45115234 -195.14226562 357.83980469 -195.98828125 358.24023438 C-201.85825893 361 -201.85825893 361 -203 361 C-203 275.86 -203 190.72 -203 103 C-198.70589146 100.54622369 -194.83533674 98.38488045 -190.375 96.4375 C-186.73408283 94.84655482 -183.39380841 93.06290315 -180 91 C-173.55555556 88 -173.55555556 88 -170 88 C-170 87.34 -170 86.68 -170 86 C-168.08850332 84.9901527 -166.17058431 83.99245505 -164.25 83 C-163.18265625 82.443125 -162.1153125 81.88625 -161.015625 81.3125 C-158 80 -158 80 -154 80 C-154 79.34 -154 78.68 -154 78 C-152.08850332 76.9901527 -150.17058431 75.99245505 -148.25 75 C-147.18265625 74.443125 -146.1153125 73.88625 -145.015625 73.3125 C-142 72 -142 72 -138 72 C-138 71.34 -138 70.68 -138 70 C-136.08850332 68.9901527 -134.17058431 67.99245505 -132.25 67 C-131.18265625 66.443125 -130.1153125 65.88625 -129.015625 65.3125 C-126 64 -126 64 -122 64 C-122 63.34 -122 62.68 -122 62 C-111.62642369 56.44419134 -111.62642369 56.44419134 -106 56 C-106 55.34 -106 54.68 -106 54 C-104.08850332 52.9901527 -102.17058431 51.99245505 -100.25 51 C-99.18265625 50.443125 -98.1153125 49.88625 -97.015625 49.3125 C-94 48 -94 48 -90 48 C-90 47.34 -90 46.68 -90 46 C-88.08850332 44.9901527 -86.17058431 43.99245505 -84.25 43 C-83.18265625 42.443125 -82.1153125 41.88625 -81.015625 41.3125 C-78 40 -78 40 -74 40 C-74 39.34 -74 38.68 -74 38 C-72.08850332 36.9901527 -70.17058431 35.99245505 -68.25 35 C-67.18265625 34.443125 -66.1153125 33.88625 -65.015625 33.3125 C-62 32 -62 32 -58 32 C-58 31.34 -58 30.68 -58 30 C-56.08850332 28.9901527 -54.17058431 27.99245505 -52.25 27 C-51.18265625 26.443125 -50.1153125 25.88625 -49.015625 25.3125 C-46 24 -46 24 -42 24 C-42 23.34 -42 22.68 -42 22 C-40.08850332 20.9901527 -38.17058431 19.99245505 -36.25 19 C-35.18265625 18.443125 -34.1153125 17.88625 -33.015625 17.3125 C-30 16 -30 16 -26 16 C-26 15.34 -26 14.68 -26 14 C-24.08850332 12.9901527 -22.17058431 11.99245505 -20.25 11 C-19.18265625 10.443125 -18.1153125 9.88625 -17.015625 9.3125 C-14 8 -14 8 -10 8 C-10 7.34 -10 6.68 -10 6 C-8.71086513 5.32845067 -7.41859796 4.66291141 -6.125 4 C-5.04605469 3.443125 -5.04605469 3.443125 -3.9453125 2.875 C-2 2 -2 2 0 2 C0 1.34 0 0.68 0 0 Z M-77.53839111 58.72232056 C-82.24362025 61.10143704 -86.95569248 63.46691097 -91.66796875 65.83203125 C-92.58392822 66.29197983 -93.4998877 66.75192841 -94.44360352 67.22581482 C-100.96942253 70.49738488 -107.52260935 73.69786024 -114.125 76.8125 C-123.89470671 81.42270482 -133.5473839 86.25311606 -143.19857788 91.10491943 C-152.76783421 95.91395279 -162.37103493 100.63209124 -172.07275391 105.17016602 C-175.78869687 106.69972437 -175.78869687 106.69972437 -179 109 C-179.09924243 111.20474187 -179.12632427 113.41273096 -179.12698364 115.6197052 C-179.12854363 116.3204706 -179.13010362 117.021236 -179.13171089 117.74323672 C-179.13572509 120.11115331 -179.13252902 122.47900667 -179.12939453 124.84692383 C-179.13074891 126.5392053 -179.13252905 128.23148648 -179.13470459 129.92376709 C-179.13928945 134.54842283 -179.13748117 139.1730564 -179.1343255 143.79771256 C-179.13178963 148.67387339 -179.1341445 153.55003234 -179.13571167 158.42619324 C-179.1375372 166.6626316 -179.1351248 174.89906104 -179.13037109 183.13549805 C-179.12500527 192.53850729 -179.12663239 201.94149458 -179.1321975 211.34450322 C-179.13681205 219.47762986 -179.13733714 227.61075006 -179.13475883 235.74387759 C-179.13323083 240.57204619 -179.1329012 245.4002047 -179.13629532 250.22837257 C-179.15290425 277.49848259 -178.72982628 304.73966221 -178 332 C-173.84260666 330.36918355 -169.86443424 328.48920996 -165.8828125 326.47265625 C-164.46877025 325.76135298 -163.0547069 325.05009164 -161.640625 324.33886719 C-160.90392578 323.96741577 -160.16722656 323.59596436 -159.40820312 323.21325684 C-148.65265895 317.79235676 -137.8868402 312.40357438 -127 307.25 C-118.94608518 303.43715781 -110.96075532 299.50372641 -103 295.5 C-95.16380759 291.559001 -87.30363898 287.68882546 -79.375 283.9375 C-75.24500378 281.96868401 -71.12153343 279.98645416 -67 278 C-66.2499469 277.63912292 -65.4998938 277.27824585 -64.72711182 276.90643311 C-59.43926225 274.35952048 -54.16280573 271.79047806 -48.89556885 269.20120239 C-47.11127973 268.32739577 -45.32417809 267.45930553 -43.53411865 266.59738159 C-30.4805876 260.30463924 -17.83811018 254.20154245 -12 240 C-10.85347773 236.40156157 -10.86604882 233.0016546 -10.85282898 229.23957825 C-10.84915229 228.5605574 -10.8454756 227.88153654 -10.8416875 227.1819393 C-10.83067788 224.90749936 -10.82681145 222.63310515 -10.82299805 220.35864258 C-10.81673131 218.72735449 -10.81008433 217.09606783 -10.80308533 215.46478271 C-10.78206659 210.1080423 -10.77168463 204.75130166 -10.76171875 199.39453125 C-10.75767031 197.54853488 -10.75355336 195.70253866 -10.74936867 193.85654259 C-10.7303214 185.18275058 -10.71608968 176.50896706 -10.7077567 167.83515817 C-10.69798719 157.83194874 -10.6716732 147.82896075 -10.63125581 137.82582933 C-10.60106755 130.08809054 -10.58628523 122.35041514 -10.58297569 114.61261863 C-10.5806282 109.9939886 -10.57170714 105.37559528 -10.54651451 100.75702858 C-10.52318143 96.40918287 -10.51902149 92.06172884 -10.52927589 87.71383667 C-10.5297701 86.12278119 -10.52348368 84.53170609 -10.50971985 82.94071007 C-10.41177598 70.94267714 -11.86371665 62.64022629 -20.21875 53.71875 C-26.42383742 47.73138495 -33.77882469 44.94266904 -42.3125 44.5 C-54.61526365 45.05941914 -66.75380506 53.26806523 -77.53839111 58.72232056 Z " fill="#EAEAEA" transform="translate(450,127)"/>
<path d="M0 0 C4.74078355 2.39758662 9.40463155 4.93588959 14.07617188 7.46484375 C19.14183077 10.17649614 24.25333346 12.79992434 29.36099243 15.43130493 C32.49574104 17.0466697 35.62849591 18.66588989 38.76123047 20.28515625 C39.68344139 20.76174934 39.68344139 20.76174934 40.62428284 21.24797058 C48.22951918 25.17993424 55.81894113 29.14202885 63.40576172 33.109375 C67.29937019 35.14484283 71.19851255 37.16925286 75.10107422 39.1875 C107.86163068 56.15036229 107.86163068 56.15036229 111.67529297 63.4609375 C112.07103516 64.20214844 112.46677734 64.94335938 112.87451172 65.70703125 C116.38624749 73.01390602 117.31915066 79.75095846 115.30029297 87.74609375 C111.90912082 96.88812867 106.83700362 103.72077011 97.98779297 108.0234375 C90.46634947 111.12050247 81.39157299 111.45894227 73.75341797 108.6015625 C65.30157376 105.01217265 57.19905223 100.61751328 49.05029297 96.3984375 C47.37797011 95.53736568 45.70544518 94.67668622 44.03271484 93.81640625 C34.96309906 89.14564726 25.92431428 84.41853729 16.90216064 79.65684509 C11.77591095 76.95477896 6.63416232 74.28528705 1.47607422 71.64453125 C0.79591751 71.29610168 0.1157608 70.94767212 -0.58500671 70.58868408 C-3.30555516 69.19584053 -6.0265774 67.80395544 -8.74975586 66.41625977 C-16.47305901 62.47793529 -24.15025944 58.46592333 -31.73486328 54.265625 C-32.39516037 53.90516586 -33.05545746 53.54470673 -33.73576355 53.17332458 C-42.76146283 48.11687381 -47.57192164 41.92024632 -50.38720703 32.00390625 C-52.16597617 23.52140093 -51.22472284 16.64846611 -47.01220703 9.0234375 C-35.14548724 -8.66647371 -17.63678508 -8.55946862 0 0 Z " fill="#545454" transform="translate(106.01220703125,254.9765625)"/>
<path d="M0 0 C1.89105469 -0.05607422 1.89105469 -0.05607422 3.8203125 -0.11328125 C8.71867324 0.1442135 12.55051218 2.13044549 16.875 4.3125 C18.37522705 5.04521118 18.37522705 5.04521118 19.90576172 5.79272461 C23.36339622 7.48885038 26.80836071 9.20925344 30.25 10.9375 C31.17623672 11.40153229 31.17623672 11.40153229 32.1211853 11.87493896 C41.97550946 16.81345853 51.75773785 21.87636012 61.49072266 27.04980469 C65.9418321 29.40707871 70.40896392 31.73366712 74.875 34.0625 C75.82133301 34.55661377 76.76766602 35.05072754 77.74267578 35.55981445 C82.52884415 38.05647811 87.31928032 40.54443858 92.11886597 43.01522827 C93.92018913 43.9425493 95.72089398 44.87106176 97.52148438 45.79980469 C99.80914298 46.97896463 102.09811649 48.15557862 104.38867188 49.32910156 C131.23198064 63.17451188 131.23198064 63.17451188 136.2109375 75.7734375 C138.81859492 85.74389233 136.67249698 94.42775001 131.875 103.3125 C127.50965061 110.455799 119.61241917 113.73336028 111.875 116.3125 C98.52770623 119.08945374 87.24472574 111.28626873 75.875 105.3125 C73.94600343 104.31766955 72.01632723 103.32415568 70.0859375 102.33203125 C65.29891792 99.86044112 60.53091875 97.35426604 55.76757812 94.83740234 C50.89617501 92.26930782 46.00951032 89.73054664 41.125 87.1875 C33.4847655 83.20396556 25.84754433 79.21467472 18.23754883 75.17358398 C13.68281907 72.76174887 9.10046996 70.41747305 4.48828125 68.1171875 C2.82901611 67.27982056 2.82901611 67.27982056 1.13623047 66.42553711 C-1.01068882 65.3432463 -3.16366888 64.27285813 -5.32373047 63.21704102 C-16.37505248 57.61286263 -24.87429784 50.76432563 -29.375 39.0625 C-31.47804513 28.54727436 -29.82547235 21.43848555 -24.125 12.3125 C-21.47591873 8.59391386 -19.01863951 6.32997061 -15.0625 4.0625 C-14.20527344 3.56234375 -13.34804687 3.0621875 -12.46484375 2.546875 C-8.22577564 0.31057196 -4.74767787 0.09111705 0 0 Z " fill="#545454" transform="translate(83.125,169.6875)"/>
<path d="M0 0 C1.59103681 0.82580055 3.18234718 1.65107422 4.77392578 2.47583008 C13.23486715 6.86538145 21.68287845 11.28051236 30.10693359 15.74047852 C36.61900298 19.18584315 43.16323383 22.56826235 49.70941162 25.94818115 C53.45267681 27.88141631 57.19437683 29.81767921 60.93612671 31.75384521 C63.66805796 33.16733586 66.40062333 34.57955959 69.13476562 35.98876953 C97.59872737 50.66959743 97.59872737 50.66959743 103.17578125 62.421875 C105.86707779 70.97200228 105.17229556 80.48745515 101.125 88.4375 C96.93733605 96.19243324 89.98391676 100.7799109 81.8203125 103.73828125 C67.44710395 107.46698318 55.3980888 99.78462305 43.0625 93.25 C41.9703418 92.67685059 40.87818359 92.10370117 39.75292969 91.51318359 C36.54094676 89.82630471 33.3324872 88.13290822 30.125 86.4375 C27.77442961 85.19799281 25.42349095 83.95918677 23.07250977 82.72045898 C21.59229285 81.94047134 20.11231706 81.16002594 18.63256836 80.37915039 C12.10085197 76.93748818 5.54623732 73.54046982 -1.01245117 70.15057373 C-2.87140922 69.1893567 -4.72971091 68.22688084 -6.58789062 67.26416016 C-12.23309746 64.34123729 -17.8822324 61.42741687 -23.55383301 58.55596924 C-25.40072718 57.62009125 -27.24558145 56.68031018 -29.08984375 55.73925781 C-31.37496991 54.57460097 -33.66380658 53.41718334 -35.95703125 52.26855469 C-43.93005108 48.19065638 -52.45308618 43.70485669 -57.3125 35.875 C-57.76496094 35.17246094 -58.21742187 34.46992188 -58.68359375 33.74609375 C-62.82648016 25.71840237 -63.57180585 16.16421975 -61 7.484375 C-57.12424154 -0.82810696 -51.07393213 -6.83885071 -42.75 -10.68359375 C-26.96701999 -15.50855367 -13.46645296 -7.04062327 0 0 Z " fill="#545454" transform="translate(116.875,339.5625)"/>
<path d="M0 0 C0 28.38 0 56.76 0 86 C-6.88875 89.465 -13.7775 92.93 -20.875 96.5 C-23.0494873 97.59634766 -25.22397461 98.69269531 -27.46435547 99.82226562 C-29.18180706 100.68391092 -30.8994075 101.54525961 -32.6171875 102.40625 C-33.9621228 103.0863916 -33.9621228 103.0863916 -35.33422852 103.78027344 C-36.61293823 104.41980957 -36.61293823 104.41980957 -37.91748047 105.07226562 C-38.65916473 105.44532837 -39.400849 105.81839111 -40.16500854 106.20275879 C-42 107 -42 107 -44 107 C-44 78.62 -44 50.24 -44 21 C-37.461875 17.720625 -30.92375 14.44125 -24.1875 11.0625 C-22.12653076 10.02746338 -20.06556152 8.99242676 -17.94213867 7.92602539 C-16.30916166 7.10807668 -14.67611011 6.29027677 -13.04296875 5.47265625 C-12.19464478 5.04593628 -11.3463208 4.61921631 -10.47229004 4.17956543 C-9.66054321 3.77363159 -8.84879639 3.36769775 -8.01245117 2.94946289 C-7.3085173 2.59638565 -6.60458344 2.24330841 -5.87931824 1.87953186 C-1.86327441 0 -1.86327441 0 0 0 Z " fill="#EBEBEB" transform="translate(377,253)"/>
<path d="M0 0 C-2.3125 2.5 -2.3125 2.5 -5 5 C-5.99 5 -6.98 5 -8 5 C-8.33 4.01 -8.66 3.02 -9 2 C-3.375 -1.125 -3.375 -1.125 0 0 Z " fill="#E8E8E8" transform="translate(222,39)"/>
<path d="M0 0 C0.33 0.66 0.66 1.32 1 2 C0.01 3.485 0.01 3.485 -1 5 C-1.66 5 -2.32 5 -3 5 C-3.33 5.99 -3.66 6.98 -4 8 C-4.66 8 -5.32 8 -6 8 C-4.55746343 4.63408134 -2.66735273 2.48952921 0 0 Z " fill="#5F5F5F" transform="translate(66,256)"/>
<path d="M0 0 C0 0.66 0 1.32 0 2 C-2 3.625 -2 3.625 -4 5 C-5.32 4.34 -6.64 3.68 -8 3 C-2.25 0 -2.25 0 0 0 Z " fill="#7B7B7B" transform="translate(49,112)"/>
</svg>
